<?xml version="1.0" encoding="UTF-8" standalone="no"?>
<svg
   id="LlamaEdge_"
   data-name="LlamaEdge "
   width="90"
   height="90"
   viewBox="0 0 90 90"
   version="1.1"
   sodipodi:docname="logo.svg"
   inkscape:export-filename="g2.svg"
   inkscape:export-xdpi="96"
   inkscape:export-ydpi="96"
   xmlns:inkscape="http://www.inkscape.org/namespaces/inkscape"
   xmlns:sodipodi="http://sodipodi.sourceforge.net/DTD/sodipodi-0.dtd"
   xmlns="http://www.w3.org/2000/svg"
   xmlns:svg="http://www.w3.org/2000/svg">
  <sodipodi:namedview
     id="namedview2"
     pagecolor="#ffffff"
     bordercolor="#000000"
     borderopacity="0"
     inkscape:showpageshadow="false"
     inkscape:pageopacity="0.0"
     inkscape:pagecheckerboard="0"
     inkscape:deskcolor="#d1d1d1"
     inkscape:export-bgcolor="#ffffff00"
     showborder="false"
     borderlayer="false"
     inkscape:antialias-rendering="false"
     showguides="false">
    <inkscape:page
       x="0"
       y="0"
       width="90"
       height="90"
       id="page2"
       margin="0"
       bleed="0" />
  </sodipodi:namedview>
  <defs
     id="defs2">
    <style
       id="style1">
      .cls-1 {
        fill: #fff;
      }

      .cls-2 {
        fill-rule: evenodd;
        fill: url(#linear-gradient);
      }
    </style>
  </defs>
  <path
     id="shape_2"
     data-name="shape 2"
     class="cls-2"
     d="M 58.90737,69.119055 C 45.13051,65.566818 41.82246,71.83588 36.6063,71.172798 c -4.55242,-6.201933 0,-26.686596 0,-26.686596 0,-2.708103 -3.36005,-2.923952 -3.36005,-2.923952 h -9.10079 l -0.1001,-0.09954 c -0.87116,-0.08782 -2.17489,-0.546764 -2.17489,-2.51105 0,-2.949133 -0.32344,-5.93749 5.74006,-7.936355 6.06349,-1.998875 6.30011,-2.088481 6.30011,-2.088481 0,0 -3.34635,-2.211177 0.70001,-3.620104 0,0 -2.69359,-2.581588 1.81996,-3.61997 0,0 -2.64799,-2.151662 3.21996,-3.341613 0.83628,-0.153749 1.68596,-0.223642 2.53626,-0.20863 -0.0813,-2.148803 -0.4887,-5.001117 -1.68427,-8.3419135 -2.03056,-5.6711289 5.48743,2.0248775 7.08749,8.9341655 0.47396,0.09315 0.9505,0.19651 1.42958,0.310084 0.22579,-2.208722 0.26427,-5.497769 -0.47489,-9.8544777 -1.28552,-7.5780737 7.93619,2.8849977 6.94726,12.0980617 3.24202,1.57235 5.61423,3.65742 5.61423,6.078041 0,0.555074 -2.8e-4,1.089626 -7.3e-4,1.60366 0,0.02248 7.3e-4,0.04455 7.3e-4,0.06713 -3.88022,8.690934 -10.20728,29.793608 -2.19886,40.087788 z M 39.72333,29.372783 c 0,0 1.47978,0.388428 3.0723,-0.425811 1.59253,-0.814219 2.4029,0.791226 1.36933,1.770355 -0.58566,0.55481 -1.39224,0.53482 -2.6615,0.48782 -0.90201,-0.03342 -1.42529,-0.143469 -2.27062,-0.409382 -0.49041,-0.15424 -1.55378,-0.493906 -1.5037,-1.167879 0.0564,-0.758198 1.30255,-0.728889 1.99419,-0.255103 z"
     sodipodi:nodetypes="ccscccssccccccccccscsccsssssc"
     style="fill:#8096b6;fill-opacity:1;stroke-width:0.136557" />
  <path
     d="m 45.28428,89.506316 c 0.80719,0 1.575,-0.345435 2.10937,-0.946808 C 48.63397,87.160972 77.77569,54.040842 77.67584,32.201302 77.59424,14.445484 63.086,3.5273059e-7 45.33209,3.5273059e-7 27.49662,3.5273059e-7 12.98834,14.451073 12.98834,32.213883 c 0,21.826959 28.94766,54.940097 30.18094,56.338633 0.53437,0.60556 1.26281,0.934218 2.115,0.9538 z m 0.0478,-83.9121712 c 14.66578,0 26.65125,11.9476902 26.71875,26.6323282 C 72.12673,48.762764 51.96817,74.353176 45.2913,82.370982 38.64677,74.347586 18.61333,48.769756 18.61333,32.213883 18.61333,17.536246 30.5988,5.5941448 45.33208,5.5941448 Z"
     id="path2"
     style="fill:#a57070;fill-opacity:1;stroke-width:1.40239" />
</svg>
