<?xml version="1.0" encoding="UTF-8" standalone="no"?>
<!-- Created with Inkscape (http://www.inkscape.org/) -->

<svg
   width="73.917747"
   height="100.00001"
   viewBox="0 0 19.557404 26.458335"
   version="1.1"
   id="svg1"
   xml:space="preserve"
   xmlns:inkscape="http://www.inkscape.org/namespaces/inkscape"
   xmlns:sodipodi="http://sodipodi.sourceforge.net/DTD/sodipodi-0.dtd"
   xmlns="http://www.w3.org/2000/svg"
   xmlns:svg="http://www.w3.org/2000/svg"><sodipodi:namedview
     id="namedview1"
     pagecolor="#ffffff"
     bordercolor="#000000"
     borderopacity="0.25"
     inkscape:showpageshadow="2"
     inkscape:pageopacity="0.0"
     inkscape:pagecheckerboard="0"
     inkscape:deskcolor="#d1d1d1"
     inkscape:document-units="mm"
     showguides="true"><sodipodi:guide
       position="39.358271,55.980088"
       orientation="1,0"
       id="guide4"
       inkscape:locked="false" /><sodipodi:guide
       position="90.714762,-32.138213"
       orientation="0,-1"
       id="guide6"
       inkscape:locked="false" /><inkscape:page
       x="0"
       y="0"
       width="19.557404"
       height="26.458336"
       id="page2"
       margin="0"
       bleed="0" /></sodipodi:namedview><defs
     id="defs1" /><g
     inkscape:groupmode="layer"
     id="layer4"
     inkscape:label="Layer 4"
     transform="translate(-0.03213988,-0.11763269)"><path
       style="fill:#465384;fill-opacity:1;stroke-width:0.101224"
       d="M 9.4919146,26.21211 C 9.3201416,25.991418 9.1596786,25.787575 9.1353296,25.759124 9.0730686,25.686374 8.3272766,24.734321 7.8331266,24.096781 7.2755876,23.377354 6.7070096,22.666595 6.1405596,21.954191 5.2724106,20.862378 2.0995586,16.855939 1.4934423,15.869859 1.3017926,15.558065 0.95942218,14.897041 0.78900938,14.509789 0.33036328,13.467553 0.15369478,12.343714 0.15026028,12.321467 -0.24317792,9.7729662 0.35023168,7.3126595 1.8707019,5.1884293 c 0.4668137,-0.65218 1.1963007,-1.4337744 1.7164477,-1.839056 0.07562,-0.058921 0.194232,-0.1553374 0.263579,-0.2142593 0.326098,-0.2770682 1.215598,-0.8528465 1.669356,-1.0805829 0.964791,-0.4842174 1.889701,-0.7896356 2.535398,-0.8372203 0.132121,-0.00974 0.336794,-0.045946 0.33358,0.036628 -0.0019,0.049101 -0.210041,0.1635326 -0.225137,0.2028139 -0.01509,0.039281 0.03468,-0.031275 0.110604,-0.156789 0.193575,-0.31999361 0.727394,-0.85151951 0.999035,-0.99474131 0.238896,-0.125958 0.547636,-0.1857231 0.9654034,-0.1868811 l 0.255154,-7.086e-4 0.01267,0.568394 c 0.0069,0.3126164 0.02549,0.58120701 0.04116,0.59686951 0.01567,0.015662 0.192432,-0.1428423 0.392808,-0.35223071 0.403726,-0.4218864 0.608476,-0.5664312 0.953317,-0.6730036 0.273191,-0.084429 0.870196,-0.1343343 0.906392,-0.075768 0.01313,0.02125 0.03407,0.3203884 0.04652,0.6647498 l 0.02265,0.62611331 0.128322,0.04118 c 0.397176,0.1274601 1.214689,0.5182269 1.681699,0.8038446 0.815209,0.4985711 1.438245,0.9850965 2.07365,1.6193039 0.557925,0.5568727 0.791482,0.8334381 1.132136,1.3406167 1.154174,1.7648632 1.686879,3.344257 1.704097,5.4814568 2.03e-4,0.810998 -0.05032,1.516744 -0.140106,1.956665 -0.353396,1.731417 -1.165449,3.062185 -1.793613,3.953311 -0.284015,0.402909 -1.064095,1.426498 -1.265478,1.660507 -0.09296,0.108022 -0.270836,0.326914 -0.395278,0.486427 -0.124442,0.159513 -0.45123,0.571044 -0.726195,0.914512 -0.274966,0.343469 -0.65206,0.823596 -0.837988,1.06695 -0.185927,0.243354 -0.688819,0.884371 -1.117535,1.424482 -1.121068,1.412357 -1.203778,1.517312 -1.776155,2.253836 -0.94037,1.210052 -1.093799,1.403558 -1.355807,1.709955 -0.142758,0.166944 -0.2860164,0.33144 -0.3183534,0.365548 -0.05525,0.05828 -0.07763,0.03781 -0.371108,-0.339244 z m 0.5688814,-1.16005 c 1.955376,-2.350646 3.702748,-4.863576 5.669258,-7.205321 0.02131,-0.02009 0.05482,-0.06279 0.07445,-0.0949 0.06599,-0.107866 0.667513,-0.88611 0.768196,-0.993892 0.0548,-0.05867 0.09039,-0.106664 0.07909,-0.106664 -0.0113,0 0.01239,-0.03615 0.05264,-0.08035 0.203036,-0.222862 0.819368,-1.142 1.071557,-1.598016 0.232676,-0.420732 0.501223,-1.043289 0.648433,-1.503223 0.224672,-0.701956 0.431201,-1.957943 0.432496,-2.630192 C 18.858116,10.2164 18.707003,8.9938432 18.566704,8.4915852 18.401399,7.8997932 18.01926,6.9940771 17.700376,6.4382735 17.542353,6.1628381 17.083652,5.446155 17.037572,5.4026882 17.027161,5.3928684 16.962901,5.3044862 16.894774,5.2062842 16.728858,4.9671275 15.996019,4.2162264 15.750944,4.0342628 15.642921,3.9540584 15.458123,3.806902 15.340281,3.7072483 15.222439,3.6075956 15.02157,3.4636712 14.893908,3.3874176 14.766245,3.311163 14.634949,3.2258822 14.602137,3.1979037 14.43196,3.052789 13.113448,2.4132371 12.850985,2.3484978 12.698924,2.3109897 12.671365,2.2536594 12.73369,2.1044936 c 0.02986,-0.071472 0.04055,-0.1299482 0.02376,-0.1299482 -0.01679,0 -0.05076,0.068294 -0.07548,0.1517662 -0.02472,0.083472 -0.114902,0.3130141 -0.200403,0.5100936 -0.0855,0.1970794 -0.166286,0.4260598 -0.179524,0.5088455 -0.02349,0.1468922 -0.02138,0.1510576 0.08762,0.1728573 0.0389,0.00777 2.244694,0.7080215 3.628028,2.5811333 1.512932,2.0486006 1.824717,3.9991119 1.662699,5.5919727 -0.236187,2.321538 -1.554211,3.877053 -2.208603,4.517293 -1.322245,1.369861 -2.998858,2.0165 -4.898754,2.324457 -0.455788,0.05567 -1.4717674,0.0193 -1.9997504,-0.07158 -3.890511,-0.669668 -6.217846,-3.746731 -6.5547627,-6.45008 -0.045171,-0.362476 -0.056347,-1.52053 -0.017799,-1.8453518 0.1313259,-1.057359 0.5835387,-2.2745732 0.9283007,-2.9206097 0.344762,-0.6460372 0.55851,-0.8049135 0.797753,-1.1268945 0.08389,-0.1106611 0.821803,-0.8887267 1.11411,-1.1257982 0.489979,-0.4681917 1.059285,-0.8505093 1.68223,-1.121912 0.297108,-0.1133829 0.331988,-0.147198 0.5709,-0.5534766 0.08662,-0.1473021 0.309485,-0.48476 0.495251,-0.749906 0.185766,-0.265145 0.370707,-0.5352732 0.41098,-0.6002848 0.125381,-0.2024027 0.100449,0.022115 -0.05508,0.2548373 -0.229043,0.3427347 -0.403843,0.3141903 -0.488787,0.2687303 -0.187237,-0.1002074 -0.844487,0.059229 -1.418493,0.3440993 -0.241623,0.1199128 -0.711303,0.3691897 -0.892745,0.4738126 -0.231573,0.1335285 -1.1154,0.8092633 -1.446248,1.1057373 -1.354431,1.0937725 -2.5396844,3.65795 -2.74917902,4.958547 -0.1774074,1.1014028 -0.1426864,2.4617768 0.088792,3.4789498 0.1712561,0.752525 0.4079417,1.426338 0.710989,2.029072 0.319003,0.634466 0.939252,1.555927 1.678608,2.493792 0.427125,0.541804 2.455563,3.115498 2.440162,3.162954 -0.0049,0.01513 0.0039,0.0275 0.01959,0.0275 0.01569,0 0.139209,0.140607 0.274497,0.312462 2.155582,2.891909 0.714979,0.901105 3.511815,4.4636 0.140969,0.179563 0.179271,0.170735 0.3866434,-0.08911 z M 10.5016,17.688129 c 0.678281,0.03102 0.838155,-0.0064 0.949734,-0.222143 0.06731,-0.130162 0.0481,-0.379602 -0.03878,-0.503643 -0.04599,-0.06566 -0.05392,-0.295528 -0.05392,-1.563057 0,-0.817341 -0.01061,-1.898452 -0.02358,-2.402468 l -0.02358,-0.916392 -0.628124,-0.0011 c -0.8094724,-0.0014 -1.4386724,-0.04852 -1.6637084,-0.124568 -0.421463,-0.142426 -0.870248,-0.518616 -1.439955,-1.207031 -0.168099,-0.203124 -0.239399,-0.266402 -0.261542,-0.232113 -0.01674,0.02592 -0.02951,0.520218 -0.02838,1.098425 l 0.0021,1.051289 c 0.713588,0.828969 1.538491,1.589323 2.317029,2.405066 0.01084,0.01135 -0.08117,0.128862 -0.180389,0.25148 -0.208223,0.257339 -0.224409,0.256756 -0.447631,-0.01612 -0.10334,-0.126328 -1.629471,-1.74198 -1.654034,-1.752258 -0.01845,-0.0077 -0.02833,3.538152 -0.0102,3.66232 0.110998,0.03394 0.109493,0.03983 0.346067,0.140692 0.236575,0.100861 0.785685,0.376776 2.051529,0.341656 0.3446894,-0.0096 0.6990194,-0.01408 0.7874024,-0.01004 z m 2.069032,-0.518195 c 1.035828,-0.416293 2.016938,-1.06904 2.611079,-1.737191 0.917781,-1.032106 1.407656,-1.947607 1.698248,-3.173768 0.113135,-0.47738 0.12445,-0.577831 0.144973,-1.287029 0.02475,-0.855506 -0.007,-1.2364598 -0.156289,-1.8732908 C 16.781231,8.7257102 16.529575,7.9638865 16.403308,7.6899674 16.319514,7.5081911 15.961651,6.9160599 15.773927,6.6485753 15.353418,6.0494006 14.448682,4.9679909 13.023124,4.2949883 12.562179,4.0773765 12.113127,3.9183899 12.077186,3.9600793 c -0.04297,0.049835 -0.290167,0.8788419 -0.290096,0.9728538 4.4e-5,0.058656 0.131103,0.2191409 0.43743,0.5356473 0.240552,0.2485452 0.453472,0.4580758 0.473155,0.4656236 0.01968,0.00755 0.236656,0.2091872 0.482161,0.4480879 0.245505,0.2388998 0.582963,0.565183 0.749906,0.725073 0.166944,0.1598907 0.640991,0.6305544 1.05344,1.0459195 0.412449,0.4153658 0.852129,0.8542388 0.977069,0.9752748 l 0.227163,0.220065 -0.01641,0.9463098 c -0.01294,0.74618 -0.02809,0.973643 -0.07162,1.075553 -0.07774,0.181975 -0.489952,0.607335 -0.694494,0.716645 -0.363938,0.194493 -0.831594,0.218655 -1.275403,0.06589 -0.19122,-0.06582 -0.298793,-0.0726 -1.151642,-0.0726 h -0.94072 v 2.568185 c 0,1.412504 0.0098,2.593606 0.02167,2.624672 0.03136,0.08172 0.07153,0.07361 0.511836,-0.103349 z M 6.6867256,16.035288 c 0.0089,-1.375465 -0.0024,-5.784276 -0.01487,-5.796754 -0.0059,-0.0059 -0.375916,-0.02215 -0.822286,-0.03614 l -0.81158,-0.02544 -4.05e-4,2.764013 c -2.02e-4,1.520207 -0.01036,2.824274 -0.02253,2.897925 -0.03436,0.171254 0.250507,0.283806 0.376088,0.380007 0.0709,0.05574 0.249437,0.178037 0.39674,0.271773 0.147302,0.09374 0.275858,0.180274 0.285679,0.192307 0.02914,0.03571 0.513932,0.282401 0.562429,0.286203 0.03452,0.0027 0.04601,-0.208894 0.05072,-0.933885 z m -2.337769,-4.413885 0.0073,-3.2586187 0.227182,-0.2748417 c 0.259128,-0.3134902 0.970611,-1.2679277 1.203122,-1.6139595 0.08578,-0.1276625 0.214388,-0.3044264 0.285793,-0.3928082 0.391026,-0.4839921 0.481065,-0.6541332 0.538585,-1.01773 0.02559,-0.1617691 0.09497,-0.3120407 0.111015,-0.3708415 0.03202,-0.1174036 0.05245,-0.2759591 0.0033,-0.368102 -0.268319,0.070086 -0.469715,0.1861179 -0.617666,0.2954312 -0.147952,0.1093135 -0.113424,0.082406 -0.527639,0.3720926 -0.414214,0.2896862 -0.753362,0.5893202 -1.045275,0.9132316 -0.87926,0.9756412 -1.496118,2.1147806 -1.729361,3.1935814 -0.141362,0.653829 -0.16533,0.887547 -0.161864,1.5783708 0.0046,0.915431 0.09263,1.467494 0.360368,2.259851 0.192178,0.568737 0.306093,0.817012 0.608666,1.326566 0.351615,0.592147 0.394804,0.638797 0.579924,0.626392 l 0.149217,-0.01 z M 15.029558,11.515328 c 0.174233,-0.01624 0.30686,-0.202758 0.350878,-0.255171 0.06796,-0.08092 0.07748,-0.145139 0.09135,-0.61615 0.0085,-0.289199 0.0081,-0.518482 -8.13e-4,-0.509514 -0.009,0.009 -0.0458,-0.0177 -0.08185,-0.05927 -0.06074,-0.07003 -0.09187,-0.0743 -0.424605,-0.05829 -0.354767,0.01708 -0.359842,0.01618 -0.424293,-0.07554 -0.163215,-0.232284 -0.258296,-0.537565 -0.168347,-0.54052 0.740805,-0.02433 0.906749,-0.04737 0.848341,-0.117748 -0.019,-0.0229 -0.03592,-0.05771 -0.03759,-0.07734 -0.0017,-0.01964 -0.01777,-0.03571 -0.03577,-0.03571 -0.04545,0 -0.09225,-0.05134 -0.09225,-0.101178 0,-0.02291 -0.02411,-0.04239 -0.05357,-0.04329 -0.02946,-8.87e-4 -0.04915,-0.02217 -0.04375,-0.04729 0.0054,-0.02512 -0.004,-0.03714 -0.02087,-0.02671 -0.03059,0.0189 -0.339172,-0.272483 -0.331976,-0.313469 0.0021,-0.01186 -0.0051,-0.02065 -0.01589,-0.01951 -0.154506,0.01617 -2.624623,-2.6578605 -3.238845,-3.0537355 -0.0931,-0.065236 -0.08924,-0.146456 -0.214259,-0.1372293 -0.06383,0.00617 -0.574159,0.026187 -1.134061,0.044484 -0.5599044,0.018297 -1.0500204,0.044217 -1.0891494,0.0576 -0.03913,0.013384 -0.132844,0.090703 -0.208252,0.1718214 -0.07541,0.081119 -0.128336,0.1198815 -0.117616,0.08614 -0.101575,-0.188205 0.05502,0.084817 -0.109849,-0.1841897 -0.04264,-0.042634 -0.009,-0.2952822 0.06586,-0.4942536 0.03902,-0.103765 0.119973,-0.3252537 0.179886,-0.4921971 0.318043,-0.961337 0.957118,-2.246485 1.056832,-3.2049564 0.0051,-0.1522136 0.01709,-0.3169254 0.0266,-0.3660265 0.03358,-0.17341221 -0.0275,-0.19743281 -0.226554,-0.089093 -0.343102,0.1867393 -0.516154,0.3964526 -1.307941,1.5850371 -0.321968,0.4833176 -0.673462,1.050753 -0.781097,1.2609685 -0.175802,0.3433461 -0.198061,0.4123338 -0.21891,0.6784865 -0.01276,0.1629529 -8.13e-4,0.6176664 0.02646,1.0104744 0.04195,0.6032132 0.06245,0.7419424 0.131969,0.8927455 0.216182,0.4689732 0.235666,0.5572088 0.21099,0.9554997 -0.01271,0.2052688 -0.03493,0.7985354 -0.04937,1.318369 -0.02403,0.865092 -0.0209,0.955523 0.03689,1.067569 0.05518,0.106973 0.229109,0.35788 0.337542,0.486933 0.01993,0.02372 0.03624,0.05607 0.03624,0.07187 0,0.01581 0.04017,0.05891 0.08927,0.09578 0.0491,0.03687 0.08927,0.08356 0.08927,0.103749 0,0.08701 0.726496,0.715697 0.928456,0.803456 0.230994,0.100375 0.450125,0.113155 2.2140094,0.129124 1.544168,0.01398 1.96404,3.8e-5 1.96404,-0.06522 -0.104727,-0.205107 -0.1473,-0.434242 -0.260951,-0.615572 -0.0136,-0.0136 -0.02473,-0.115251 -0.02473,-0.225891 v -0.201165 l 0.18364,0.0084 c 0.157051,0.0072 0.202748,0.02709 0.315606,0.137297 0.07258,0.07087 0.202862,0.268748 0.289515,0.439722 0.04396,0.08674 0.264401,0.413811 0.35152,0.523705 0.03933,0.04962 0.06389,0.07743 0.08706,0.0982 0.263555,0.0033 0.536851,0.01229 0.80092,-0.0013 z M 6.7682236,9.5834862 c 0.03266,-0.05285 0.02414,-3.2263286 -0.0088,-3.2592227 -0.0164,-0.016402 -0.188397,0.1833241 -0.382216,0.4438316 -0.330982,0.4448672 -1.157158,1.5526388 -1.253516,1.6550238 l -0.103599,0.1100793 0.01786,0.486419 c 0.0098,0.26753 0.03427,0.502776 0.05435,0.522768 0.02043,0.02035 0.271899,0.04117 0.571358,0.04731 0.294174,0.0061 0.658452,0.01451 0.809507,0.01886 0.151053,0.0044 0.28381,-0.0069 0.295014,-0.02506 z m 4.2897494,-4.852961 c 0.0282,-0.032938 0.04713,-0.070254 0.04206,-0.082922 0.35061,-0.7344783 0.524497,-1.5920521 0.808307,-2.4380224 0.166564,-0.4829745 0.190805,-0.5891005 0.197425,-0.8643011 0.0041,-0.1725466 0.01546,-0.3265215 0.02512,-0.3421658 0.04911,-0.079466 -0.249601,0.026415 -0.416496,0.1476292 -0.145248,0.1054933 -0.308482,0.2862857 -0.534222,0.5916876 -0.0871,0.1178428 -0.271977,0.3428148 -0.410828,0.4999377 -0.637531,0.7214296 -0.8349844,1.029431 -1.0301794,1.6069424 -0.06638,0.1964033 -0.163032,0.4570478 -0.214776,0.5792088 -0.110562,0.2610199 -0.116015,0.3202316 -0.03158,0.3430304 0.03437,0.00928 0.389057,0.017323 0.7881944,0.01787 0.63572,8.722e-4 0.732061,-0.00643 0.776982,-0.058895 z M 8.1268966,1.5817368 c 0.01214,-0.019641 0.005,-0.03571 -0.01575,-0.03571 -0.0208,0 -0.03782,0.01607 -0.03782,0.03571 0,0.019641 0.0071,0.03571 0.01574,0.03571 0.0087,0 0.02568,-0.01607 0.03782,-0.03571 z"
       id="path8"
       sodipodi:nodetypes="sssssssssssssssssccssssscsssscsssssssssssscssssssscsssssssssssssssscssssszzssssscssssssssssssccssssscssssccssssszssssssssssssssssssscssssscscscssccsssssccccsssssczzsssssscccsscsssssssssscssssssssssssssssscssssssssssssscsssssscssscsssssssssssssssssssssssss"
       inkscape:export-filename="ottollama_v1.svg"
       inkscape:export-xdpi="96"
       inkscape:export-ydpi="96" /><ellipse
       style="fill:#465384;fill-opacity:1;stroke:#be3c71;stroke-width:0.424334;stroke-dasharray:none;stroke-opacity:1"
       id="path9"
       cx="10.000053"
       cy="20.991795"
       rx="0.95071077"
       ry="0.93703145" /><rect
       style="fill:#be3c71;fill-opacity:1;stroke:#be3c71;stroke-width:0.170659;stroke-dasharray:none;stroke-opacity:1"
       id="rect10"
       width="1.2720395"
       height="0.46120736"
       x="9.2965775"
       y="7.001101" /><ellipse
       style="fill:#465384;fill-opacity:1;stroke:#be3c71;stroke-width:0.301548;stroke-dasharray:none;stroke-opacity:1"
       id="path10"
       cx="10.697161"
       cy="7.9482436"
       rx="0.87119526"
       ry="0.8778137" /></g></svg>
