<svg xmlns="http://www.w3.org/2000/svg" viewBox="0 0 200 200" width="200" height="200" fill="none">
  <!-- Background Circle -->
  <circle cx="100" cy="100" r="95" fill="#E0F7F8" stroke="#45C6C5" stroke-width="10" />

  <!-- Map Pin Shape -->
  <path d="M100 190C100 190 50 140 50 90C50 56.65 75.65 30 100 30C124.35 30 150 56.65 150 90C150 140 100 190 100 190Z" fill="#45C6C5" stroke="#007A79" stroke-width="5" />

  <!-- Llama Head Shape -->
  <path d="M85 65C85 55 90 50 100 50C110 50 115 55 115 65V90C115 100 110 105 100 105C90 105 85 100 85 90V65Z" fill="#FFFFFF" stroke="#007A79" stroke-width="3" />

  <!-- Llama Ear -->
  <path d="M90 45C90 40 93 38 96 38C99 38 102 40 102 45V55H90V45Z" fill="#FFFFFF" stroke="#007A79" stroke-width="2" />

  <!-- Eye -->
  <circle cx="105" cy="80" r="3" fill="#007A79" />

  <!-- Neck Shape -->
  <rect x="85" y="105" width="10" height="25" fill="#FFFFFF" stroke="#007A79" stroke-width="3" />

  <!-- Decorative Elements -->
  <circle cx="115" cy="115" r="2" fill="#007A79" />
  <circle cx="95" cy="135" r="2" fill="#007A79" />
</svg>